# xmcd
# Copyright (C) 1995-1998 Ti Kan
#
# Track frame offsets:
#       150
#       9883
#       19008
#       34413
#       47610
#       65445
#       84482
#       109419
#       120571
#       134361
#       154988
#       169447
#       189265
#       211167
#       224559
#       236506
#       248252
#       257374
#       283706
#       301283
#       320000
#
# Disc length: 4463 seconds
#
# Revision: 21
# Processed by: cddbd v1.5.2PL0 Copyright (c) Steve Scherf et al.
# Submitted via: CD-Import v1.0
#
DISCID=21116d15
DTITLE=Freddy Quinn - Rolling Home - Die Schönsten See
DYEAR=1900
DGENRE=
TTITLE0=Hamburg  Brennt
TTITLE1=Bella Ciao
TTITLE2=Im Kühlschrank Brennt Noch Licht
TTITLE3=Heut Will Ich Mich Besaufen
TTITLE4=In All Nothing (Original Edit)
TTITLE5=Geeking
TTITLE6=Anybody Wanna Take Me Home
TTITLE7=Itsy Bitsy, Petit Bikini
TTITLE8=Ein Bisschen Friden
TTITLE9=Nouveau Western
TTITLE10=Killing The Name
TTITLE11=D'ackerschüchi Barbara
TTITLE12=Ruf Teddybar Eins -Vier 
TTITLE13=Stop The Cavalry
TTITLE14=Les Dalton
TTITLE15=Oi! Oi! Amen
TTITLE16=77 Heisst Grüss Gott
TTITLE17=Wenn Ich Einmal Reich Wär
TTITLE18=If This Is It 
TTITLE19=Nathalie
TTITLE20=Junge, Komm Blad Wieder
EXTD=
EXTT0=
EXTT1=
EXTT2=
EXTT3=
EXTT4=
EXTT5=
EXTT6=
EXTT7=
EXTT8=
EXTT9=
EXTT10=
EXTT11=
EXTT12=
EXTT13=
EXTT14=
EXTT15=
EXTT16=
EXTT17=
EXTT18=
EXTT19=
EXTT20=
PLAYORDER=
